<svg width="17" height="21" viewBox="0 0 17 21" fill="none" xmlns="http://www.w3.org/2000/svg">
<g filter="url(#filter0_d_206_35)">
<path d="M7.564 12.144C6.996 12.144 6.484 12.016 6.028 11.76C5.58 11.496 5.224 11.132 4.96 10.668C4.704 10.196 4.576 9.648 4.576 9.024C4.576 8.4 4.704 7.856 4.96 7.392C5.224 6.92 5.58 6.556 6.028 6.3C6.484 6.036 6.996 5.904 7.564 5.904C8.268 5.904 8.86 6.088 9.34 6.456C9.828 6.824 10.136 7.316 10.264 7.932H9.232C9.152 7.564 8.956 7.28 8.644 7.08C8.332 6.872 7.968 6.768 7.552 6.768C7.216 6.768 6.9 6.852 6.604 7.02C6.308 7.188 6.068 7.44 5.884 7.776C5.7 8.112 5.608 8.528 5.608 9.024C5.608 9.52 5.7 9.936 5.884 10.272C6.068 10.608 6.308 10.864 6.604 11.04C6.9 11.208 7.216 11.292 7.552 11.292C7.968 11.292 8.332 11.192 8.644 10.992C8.956 10.784 9.152 10.492 9.232 10.116H10.264C10.144 10.716 9.84 11.204 9.352 11.58C8.864 11.956 8.268 12.144 7.564 12.144Z" fill="black"/>
<path d="M9.564 12.144C8.996 12.144 8.484 12.016 8.028 11.76C7.58 11.496 7.224 11.132 6.96 10.668C6.704 10.196 6.576 9.648 6.576 9.024C6.576 8.4 6.704 7.856 6.96 7.392C7.224 6.92 7.58 6.556 8.028 6.3C8.484 6.036 8.996 5.904 9.564 5.904C10.268 5.904 10.86 6.088 11.34 6.456C11.828 6.824 12.136 7.316 12.264 7.932H11.232C11.152 7.564 10.956 7.28 10.644 7.08C10.332 6.872 9.968 6.768 9.552 6.768C9.216 6.768 8.9 6.852 8.604 7.02C8.308 7.188 8.068 7.44 7.884 7.776C7.7 8.112 7.608 8.528 7.608 9.024C7.608 9.52 7.7 9.936 7.884 10.272C8.068 10.608 8.308 10.864 8.604 11.04C8.9 11.208 9.216 11.292 9.552 11.292C9.968 11.292 10.332 11.192 10.644 10.992C10.956 10.784 11.152 10.492 11.232 10.116H12.264C12.144 10.716 11.84 11.204 11.352 11.58C10.864 11.956 10.268 12.144 9.564 12.144Z" fill="#27F2B7"/>
<path d="M8.564 12.144C7.996 12.144 7.484 12.016 7.028 11.76C6.58 11.496 6.224 11.132 5.96 10.668C5.704 10.196 5.576 9.648 5.576 9.024C5.576 8.4 5.704 7.856 5.96 7.392C6.224 6.92 6.58 6.556 7.028 6.3C7.484 6.036 7.996 5.904 8.564 5.904C9.268 5.904 9.86 6.088 10.34 6.456C10.828 6.824 11.136 7.316 11.264 7.932H10.232C10.152 7.564 9.956 7.28 9.644 7.08C9.332 6.872 8.968 6.768 8.552 6.768C8.216 6.768 7.9 6.852 7.604 7.02C7.308 7.188 7.068 7.44 6.884 7.776C6.7 8.112 6.608 8.528 6.608 9.024C6.608 9.52 6.7 9.936 6.884 10.272C7.068 10.608 7.308 10.864 7.604 11.04C7.9 11.208 8.216 11.292 8.552 11.292C8.968 11.292 9.332 11.192 9.644 10.992C9.956 10.784 10.152 10.492 10.232 10.116H11.264C11.144 10.716 10.84 11.204 10.352 11.58C9.864 11.956 9.268 12.144 8.564 12.144Z" fill="#F198FF"/>
</g>
<defs>
<filter id="filter0_d_206_35" x="0.576" y="5.90399" width="15.688" height="14.24" filterUnits="userSpaceOnUse" color-interpolation-filters="sRGB">
<feFlood flood-opacity="0" result="BackgroundImageFix"/>
<feColorMatrix in="SourceAlpha" type="matrix" values="0 0 0 0 0 0 0 0 0 0 0 0 0 0 0 0 0 0 127 0" result="hardAlpha"/>
<feOffset dy="4"/>
<feGaussianBlur stdDeviation="2"/>
<feComposite in2="hardAlpha" operator="out"/>
<feColorMatrix type="matrix" values="0 0 0 0 0 0 0 0 0 0 0 0 0 0 0 0 0 0 0.25 0"/>
<feBlend mode="normal" in2="BackgroundImageFix" result="effect1_dropShadow_206_35"/>
<feBlend mode="normal" in="SourceGraphic" in2="effect1_dropShadow_206_35" result="shape"/>
</filter>
</defs>
</svg>
